<?xml version="1.0" encoding="UTF-8" standalone="no"?><!DOCTYPE svg PUBLIC "-//W3C//DTD SVG 1.1//EN" "http://www.w3.org/Graphics/SVG/1.1/DTD/svg11.dtd"><svg width="100%" height="100%" viewBox="0 0 500 500" version="1.1" xmlns="http://www.w3.org/2000/svg" xmlns:xlink="http://www.w3.org/1999/xlink" xml:space="preserve" xmlns:serif="http://www.serif.com/" style="fill-rule:evenodd;clip-rule:evenodd;stroke-linejoin:round;stroke-miterlimit:2;"><g id="g124152"><path d="M159.959,162.952l-90.039,90.039l90.039,90.039l90.039,-90.039l-90.039,-90.039Z" style="fill:url(#_Linear1);"/><path d="M250.002,252.995l-90.039,90.039l90.039,90.039l90.039,-90.039l-90.039,-90.039Z" style="fill:url(#_Linear2);"/><path d="M340.041,162.952l-90.039,90.039l90.039,90.039l90.039,-90.039l-90.039,-90.039Z" style="fill:url(#_Linear3);"/></g><g id="g1241521" serif:id="g124152"><path d="M256.345,138.948l29.619,29.619l29.619,-29.619l-29.619,-29.619l-29.619,29.619Z" style="fill:url(#_Linear4);"/><path d="M215.928,198.208l35.018,35.018l35.018,-35.018l-35.018,-35.017l-35.018,35.017Z" style="fill:url(#_Linear5);"/><path d="M223.121,81.503l27.825,27.826l27.826,-27.826l-27.826,-27.825l-27.825,27.825Z" style="fill:url(#_Linear6);"/></g><defs><linearGradient id="_Linear1" x1="0" y1="0" x2="1" y2="0" gradientUnits="userSpaceOnUse" gradientTransform="matrix(0,-307.108,307.11,0,159.963,388.611)"><stop offset="0" style="stop-color:#000;stop-opacity:1"/><stop offset="1" style="stop-color:#010001;stop-opacity:0"/></linearGradient><linearGradient id="_Linear2" x1="0" y1="0" x2="1" y2="0" gradientUnits="userSpaceOnUse" gradientTransform="matrix(-0.207805,-347.877,347.88,-0.207807,249.998,486.825)"><stop offset="0" style="stop-color:#000;stop-opacity:1"/><stop offset="0.46" style="stop-color:#000;stop-opacity:0.71"/><stop offset="1" style="stop-color:#010001;stop-opacity:0"/></linearGradient><linearGradient id="_Linear3" x1="0" y1="0" x2="1" y2="0" gradientUnits="userSpaceOnUse" gradientTransform="matrix(0,-311.403,311.405,0,340.041,392.906)"><stop offset="0" style="stop-color:#000;stop-opacity:1"/><stop offset="1" style="stop-color:#010001;stop-opacity:0"/></linearGradient><linearGradient id="_Linear4" x1="0" y1="0" x2="1" y2="0" gradientUnits="userSpaceOnUse" gradientTransform="matrix(-7.10543e-15,-102.756,102.756,0,285.964,181.152)"><stop offset="0" style="stop-color:#000;stop-opacity:1"/><stop offset="1" style="stop-color:#010001;stop-opacity:0"/></linearGradient><linearGradient id="_Linear5" x1="0" y1="0" x2="1" y2="0" gradientUnits="userSpaceOnUse" gradientTransform="matrix(-0.828265,-112.809,112.81,-0.828272,251.774,239.737)"><stop offset="0" style="stop-color:#000;stop-opacity:1"/><stop offset="1" style="stop-color:#010001;stop-opacity:0"/></linearGradient><linearGradient id="_Linear6" x1="0" y1="0" x2="1" y2="0" gradientUnits="userSpaceOnUse" gradientTransform="matrix(1.13687e-13,-106.246,106.247,1.20792e-13,250.946,138.948)"><stop offset="0" style="stop-color:#000;stop-opacity:1"/><stop offset="0.57" style="stop-color:#010001;stop-opacity:0.31"/><stop offset="1" style="stop-color:#010001;stop-opacity:0"/></linearGradient></defs></svg>