<?xml version="1.0" encoding="UTF-8"?>
<!DOCTYPE svg PUBLIC "-//W3C//DTD SVG 1.1//EN" "http://www.w3.org/Graphics/SVG/1.1/DTD/svg11.dtd">
<svg version="1.1" xmlns="http://www.w3.org/2000/svg" xmlns:xlink="http://www.w3.org/1999/xlink" x="0" y="0" width="56.693" height="56.693" viewBox="0, 0, 56.693, 56.693">
  <defs>
    <linearGradient id="Gradient_1" gradientUnits="userSpaceOnUse" x1="14.415" y1="41.956" x2="14.415" y2="14.84">
      <stop offset="0" stop-color="#000000"/>
      <stop offset="1" stop-color="#616161"/>
    </linearGradient>
    <linearGradient id="Gradient_2" gradientUnits="userSpaceOnUse" x1="28.362" y1="56.102" x2="28.362" y2="28.986">
      <stop offset="0" stop-color="#000000"/>
      <stop offset="1" stop-color="#616161"/>
    </linearGradient>
    <linearGradient id="Gradient_3" gradientUnits="userSpaceOnUse" x1="42.508" y1="42.154" x2="42.508" y2="15.038">
      <stop offset="0" stop-color="#000000"/>
      <stop offset="1" stop-color="#616161"/>
    </linearGradient>
    <linearGradient id="Gradient_4" gradientUnits="userSpaceOnUse" x1="-17.561" y1="34.136" x2="-17.561" y2="21.373" gradientTransform="matrix(0, -1, 1, 0, 0, 0)">
      <stop offset="0" stop-color="#7A0606"/>
      <stop offset="1" stop-color="#EE0000"/>
    </linearGradient>
    <linearGradient id="Gradient_5" gradientUnits="userSpaceOnUse" x1="-9.888" y1="45.068" x2="-11.539" y2="31.392" gradientTransform="matrix(0, -1, 1, 0, 0, 0)">
      <stop offset="0" stop-color="#FF5B00"/>
      <stop offset="0" stop-color="#FF5B00"/>
      <stop offset="1" stop-color="#B90101"/>
    </linearGradient>
    <linearGradient id="Gradient_6" gradientUnits="userSpaceOnUse" x1="-6.249" y1="34.216" x2="-6.249" y2="21.453" gradientTransform="matrix(0, -1, 1, 0, 0, 0)">
      <stop offset="0" stop-color="#7A0606"/>
      <stop offset="1" stop-color="#EE0000"/>
    </linearGradient>
  </defs>
  <g id="Layer_1">
    <g>
      <g id="g124152">
        <path d="M14.198,42.489 C14.199,42.491 14.202,42.491 14.203,42.489 L28.344,28.547 C28.345,28.546 28.345,28.543 28.344,28.542 L14.402,14.401 C14.4,14.4 14.398,14.4 14.396,14.401 L0.256,28.344 C0.254,28.345 0.254,28.347 0.256,28.349 L14.198,42.489 z" fill="url(#Gradient_1)" id="rect124154"/>
        <path d="M28.145,56.635 C28.147,56.637 28.149,56.637 28.151,56.635 L42.291,42.693 C42.293,42.691 42.293,42.689 42.291,42.688 L28.349,28.547 C28.348,28.546 28.345,28.545 28.344,28.547 L14.203,42.489 C14.202,42.491 14.202,42.493 14.203,42.495 L28.145,56.635 z" fill="url(#Gradient_2)" id="rect124156"/>
        <path d="M42.291,42.688 C42.293,42.689 42.295,42.689 42.297,42.688 L56.437,28.745 C56.439,28.744 56.439,28.741 56.437,28.74 L42.495,14.599 C42.494,14.598 42.491,14.598 42.49,14.599 L28.349,28.542 C28.348,28.543 28.348,28.545 28.349,28.547 L42.291,42.688 z" fill="url(#Gradient_3)" id="rect124158"/>
      </g>
      <g id="g124152">
        <path d="M34.198,17.065 C34.198,17.064 34.198,17.063 34.198,17.063 L28.584,11.369 C28.583,11.368 28.582,11.368 28.582,11.369 L22.888,16.983 C22.887,16.983 22.887,16.984 22.888,16.985 L28.502,22.679 C28.502,22.679 28.503,22.679 28.504,22.679 L34.198,17.065 z" fill="url(#Gradient_4)" id="rect124154"/>
        <path d="M39.893,11.449 C39.894,11.448 39.894,11.447 39.893,11.447 L34.28,5.753 C34.279,5.752 34.278,5.752 34.277,5.753 L28.584,11.367 C28.583,11.367 28.583,11.368 28.584,11.369 L34.198,17.063 C34.198,17.063 34.199,17.063 34.2,17.063 L39.893,11.449 z" fill="url(#Gradient_5)" id="rect124156"/>
        <path d="M34.277,5.753 C34.278,5.752 34.278,5.751 34.277,5.751 L28.663,0.057 C28.663,0.056 28.662,0.056 28.661,0.057 L22.968,5.671 C22.967,5.672 22.967,5.673 22.968,5.673 L28.581,11.367 C28.582,11.367 28.583,11.367 28.584,11.367 L34.277,5.753 z" fill="url(#Gradient_6)" id="rect124158"/>
      </g>
    </g>
  </g>
</svg>
