<?xml version="1.0" encoding="UTF-8" standalone="no"?><!DOCTYPE svg PUBLIC "-//W3C//DTD SVG 1.1//EN" "http://www.w3.org/Graphics/SVG/1.1/DTD/svg11.dtd"><svg width="100%" height="100%" viewBox="0 0 42 44" version="1.1" xmlns="http://www.w3.org/2000/svg" xmlns:xlink="http://www.w3.org/1999/xlink" xml:space="preserve" xmlns:serif="http://www.serif.com/" style="fill-rule:evenodd;clip-rule:evenodd;stroke-linejoin:round;stroke-miterlimit:2;"><path id="night-shift-on" serif:id="night shift on" d="M13.966,1.484c5,-1.866 10.612,-2.136 15.589,0.139c0.948,0.433 2.319,1.809 0.766,3.33c-0.247,0.242 -0.556,0.418 -0.891,0.506c-0.773,0.203 -1.627,0.202 -2.386,0.388c-6.008,1.472 -10.463,7.723 -9.831,13.912c0.559,5.465 4.967,10.317 10.37,11.4c3.608,0.723 7.464,-0.183 10.416,-2.42c0,0 0.816,-0.539 1.636,-0.36c1.42,0.31 1.904,1.902 0.916,3.711c-4.631,8.475 -15.298,13.07 -24.71,10.466c-10.453,-2.893 -17.802,-14.391 -15.376,-25.45c1.517,-6.912 6.591,-12.898 13.247,-15.525c0.085,-0.032 0.17,-0.065 0.254,-0.097Z" style="fill:#454545;"/></svg>