<?xml version="1.0" encoding="UTF-8" standalone="no"?><!DOCTYPE svg PUBLIC "-//W3C//DTD SVG 1.1//EN" "http://www.w3.org/Graphics/SVG/1.1/DTD/svg11.dtd"><svg width="100%" height="100%" viewBox="0 0 47 46" version="1.1" xmlns="http://www.w3.org/2000/svg" xmlns:xlink="http://www.w3.org/1999/xlink" xml:space="preserve" xmlns:serif="http://www.serif.com/" style="fill-rule:evenodd;clip-rule:evenodd;stroke-linejoin:round;stroke-miterlimit:2;"><path d="M22.673,14.915c4.388,-0.324 8.214,2.976 8.538,7.365c0.324,4.389 -2.976,8.215 -7.364,8.539c-4.389,0.324 -8.216,-2.977 -8.54,-7.365c-0.324,-4.389 2.977,-8.215 7.366,-8.539Zm0.162,2.198c3.175,-0.234 5.944,2.153 6.178,5.33c0.234,3.175 -2.153,5.944 -5.329,6.179c-3.176,0.234 -5.944,-2.154 -6.179,-5.33c-0.234,-3.176 2.154,-5.944 5.33,-6.179Z" style="fill:#fff;"/><path d="M21.073,36.755c0.155,-0.627 -0.229,-1.261 -0.856,-1.415c-0.627,-0.154 -1.262,0.229 -1.415,0.856l-2.053,8.355c-0.154,0.628 0.231,1.261 0.857,1.415c0.627,0.154 1.261,-0.23 1.414,-0.857l2.053,-8.354Z" style="fill:#fff;"/><path d="M29.721,1.557c0.153,-0.627 -0.23,-1.261 -0.857,-1.414c-0.627,-0.155 -1.261,0.229 -1.415,0.856l-1.893,7.707c-0.154,0.627 0.229,1.262 0.856,1.415c0.627,0.154 1.261,-0.229 1.415,-0.856l1.894,-7.708Z" style="fill:#fff;"/><path d="M9.9,27.988c0.62,-0.181 0.977,-0.83 0.797,-1.45c-0.181,-0.619 -0.83,-0.977 -1.449,-0.797l-7.999,2.324c-0.62,0.18 -0.977,0.829 -0.797,1.449c0.18,0.62 0.829,0.977 1.449,0.797l7.999,-2.323Z" style="fill:#fff;"/><path d="M45.305,17.704c0.62,-0.181 0.977,-0.831 0.797,-1.45c-0.18,-0.62 -0.829,-0.978 -1.45,-0.797l-7.512,2.182c-0.62,0.18 -0.977,0.83 -0.797,1.449c0.18,0.621 0.83,0.978 1.45,0.798l7.512,-2.182Z" style="fill:#fff;"/><path d="M12.025,13.713c0.465,0.447 1.206,0.431 1.653,-0.035c0.447,-0.466 0.431,-1.207 -0.034,-1.654l-5.868,-5.626c-0.466,-0.447 -1.207,-0.432 -1.654,0.034c-0.447,0.466 -0.431,1.206 0.035,1.653l5.868,5.628Z" style="fill:#fff;"/><path d="M38.778,39.371c0.466,0.446 1.207,0.431 1.654,-0.035c0.446,-0.466 0.431,-1.207 -0.035,-1.654l-6.064,-5.811c-0.466,-0.447 -1.207,-0.431 -1.654,0.034c-0.447,0.466 -0.431,1.207 0.035,1.654l6.064,5.812Z" style="fill:#fff;"/></svg>