<?xml version="1.0" encoding="UTF-8" standalone="no"?><!DOCTYPE svg PUBLIC "-//W3C//DTD SVG 1.1//EN" "http://www.w3.org/Graphics/SVG/1.1/DTD/svg11.dtd"><svg width="100%" height="100%" viewBox="0 0 82 31" version="1.1" xmlns="http://www.w3.org/2000/svg" xmlns:xlink="http://www.w3.org/1999/xlink" xml:space="preserve" xmlns:serif="http://www.serif.com/" style="fill-rule:evenodd;clip-rule:evenodd;stroke-linejoin:round;stroke-miterlimit:2;"><rect x="0" y="0" width="81.045" height="30.757"/><g><path d="M20.78,19.442c0,0.638 -0.09,1.19 -0.27,1.655c-0.18,0.464 -0.431,0.851 -0.752,1.158c-0.321,0.308 -0.701,0.536 -1.138,0.684c-0.438,0.148 -0.914,0.222 -1.429,0.222c-0.173,0 -0.346,-0.011 -0.519,-0.034c-0.173,-0.023 -0.331,-0.053 -0.472,-0.089l0,2.714l-1.668,-0l0,-9.659l1.442,-0l0.041,1.025c0.142,-0.178 0.289,-0.339 0.441,-0.485c0.153,-0.146 0.318,-0.27 0.496,-0.373c0.178,-0.102 0.369,-0.181 0.574,-0.236c0.205,-0.054 0.435,-0.082 0.691,-0.082c0.41,0 0.774,0.082 1.093,0.246c0.319,0.164 0.587,0.398 0.804,0.701c0.216,0.303 0.381,0.67 0.495,1.101c0.114,0.43 0.171,0.915 0.171,1.452Zm-1.75,0.069c0,-0.383 -0.027,-0.709 -0.082,-0.978c-0.055,-0.269 -0.133,-0.49 -0.236,-0.663c-0.102,-0.173 -0.228,-0.3 -0.376,-0.379c-0.148,-0.08 -0.318,-0.12 -0.509,-0.12c-0.283,0 -0.553,0.114 -0.81,0.342c-0.258,0.228 -0.53,0.538 -0.817,0.93l0,3.035c0.132,0.05 0.295,0.091 0.489,0.123c0.193,0.032 0.391,0.048 0.591,0.048c0.264,-0 0.505,-0.055 0.721,-0.164c0.217,-0.11 0.401,-0.265 0.554,-0.465c0.153,-0.201 0.27,-0.446 0.352,-0.735c0.082,-0.29 0.123,-0.614 0.123,-0.974Z" style="fill:#fff;fill-rule:nonzero;"/><path d="M26.7,23.038l-1.586,-2.338l-1.593,2.338l-2.016,0l2.604,-3.5l-2.468,-3.445l2.031,-0l1.558,2.283l1.538,-2.283l1.873,-0l-2.392,3.431l2.522,3.514l-2.071,0Z" style="fill:#fff;fill-rule:nonzero;"/><path d="M34.014,14.192c0,0.151 -0.027,0.292 -0.082,0.424c-0.054,0.132 -0.131,0.247 -0.229,0.345c-0.098,0.098 -0.213,0.176 -0.345,0.233c-0.132,0.057 -0.275,0.085 -0.43,0.085c-0.155,0 -0.3,-0.028 -0.435,-0.085c-0.134,-0.057 -0.25,-0.135 -0.348,-0.233c-0.098,-0.098 -0.174,-0.213 -0.229,-0.345c-0.055,-0.132 -0.082,-0.273 -0.082,-0.424c-0,-0.15 0.027,-0.291 0.082,-0.423c0.055,-0.133 0.131,-0.249 0.229,-0.349c0.098,-0.1 0.214,-0.179 0.348,-0.236c0.135,-0.057 0.28,-0.085 0.435,-0.085c0.155,-0 0.298,0.028 0.43,0.085c0.132,0.057 0.247,0.136 0.345,0.236c0.098,0.1 0.175,0.216 0.229,0.349c0.055,0.132 0.082,0.273 0.082,0.423Zm-1.845,3.2l-1.962,-0l-0,-1.299l3.671,-0l-0,5.646l2.003,0l-0,1.299l-5.913,0l-0,-1.299l2.201,0l-0,-4.347Z" style="fill:#fff;fill-rule:nonzero;"/><rect x="39.962" y="11.841" width="1.121" height="14" style="fill:#fff;fill-rule:nonzero;"/><path d="M47.803,14.356l-2.031,0l0,-0.977l3.234,-0l-0,8.668l2.044,-0l-0,0.991l-5.503,0l-0,-0.991l2.256,-0l-0,-7.691Z" style="fill:#fff;fill-rule:nonzero;"/><path d="M57.571,23.038l-0.027,-0.923c-0.374,0.369 -0.753,0.636 -1.138,0.8c-0.385,0.164 -0.79,0.246 -1.214,0.246c-0.392,0 -0.727,-0.05 -1.005,-0.15c-0.278,-0.101 -0.507,-0.238 -0.687,-0.414c-0.18,-0.175 -0.312,-0.382 -0.396,-0.619c-0.084,-0.237 -0.127,-0.494 -0.127,-0.772c0,-0.688 0.257,-1.227 0.769,-1.617c0.513,-0.389 1.271,-0.584 2.273,-0.584l1.422,-0l0,-0.602c0,-0.405 -0.13,-0.73 -0.389,-0.974c-0.26,-0.244 -0.657,-0.366 -1.19,-0.366c-0.387,0 -0.769,0.044 -1.145,0.13c-0.376,0.087 -0.764,0.21 -1.165,0.369l-0,-1.073c0.15,-0.054 0.317,-0.108 0.502,-0.16c0.185,-0.053 0.379,-0.1 0.585,-0.141c0.205,-0.041 0.419,-0.074 0.642,-0.099c0.223,-0.025 0.449,-0.037 0.677,-0.037c0.415,-0 0.788,0.045 1.121,0.136c0.333,0.092 0.614,0.231 0.844,0.417c0.23,0.187 0.407,0.422 0.53,0.705c0.123,0.282 0.185,0.615 0.185,0.998l-0,4.73l-1.067,0Zm-0.13,-3.124l-1.51,0c-0.297,0 -0.552,0.03 -0.766,0.089c-0.214,0.059 -0.39,0.143 -0.526,0.253c-0.137,0.109 -0.239,0.24 -0.305,0.393c-0.066,0.153 -0.099,0.325 -0.099,0.516c0,0.132 0.021,0.259 0.062,0.379c0.041,0.121 0.107,0.228 0.198,0.322c0.091,0.093 0.21,0.167 0.355,0.222c0.146,0.055 0.324,0.082 0.534,0.082c0.273,-0 0.586,-0.083 0.94,-0.25c0.353,-0.166 0.725,-0.429 1.117,-0.789l0,-1.217Z" style="fill:#fff;fill-rule:nonzero;"/><path d="M66.724,19.483c0,0.57 -0.078,1.079 -0.235,1.528c-0.158,0.449 -0.381,0.83 -0.67,1.142c-0.29,0.312 -0.642,0.551 -1.056,0.718c-0.415,0.166 -0.882,0.249 -1.402,0.249c-0.405,0 -0.82,-0.039 -1.244,-0.116c-0.424,-0.078 -0.843,-0.201 -1.258,-0.369l0,-9.256l1.19,-0l-0,2.659l-0.055,1.272c0.342,-0.461 0.708,-0.785 1.097,-0.975c0.39,-0.189 0.808,-0.283 1.255,-0.283c0.391,-0 0.736,0.082 1.032,0.246c0.296,0.164 0.544,0.395 0.745,0.694c0.2,0.298 0.351,0.658 0.451,1.08c0.1,0.421 0.15,0.892 0.15,1.411Zm-1.216,0.055c-0,-0.36 -0.027,-0.69 -0.079,-0.991c-0.052,-0.301 -0.136,-0.558 -0.249,-0.773c-0.114,-0.214 -0.26,-0.381 -0.438,-0.502c-0.178,-0.121 -0.39,-0.181 -0.636,-0.181c-0.15,-0 -0.303,0.024 -0.458,0.072c-0.155,0.047 -0.315,0.127 -0.482,0.239c-0.166,0.111 -0.341,0.26 -0.526,0.444c-0.185,0.185 -0.382,0.414 -0.591,0.687l-0,3.329c0.232,0.091 0.469,0.163 0.711,0.216c0.241,0.052 0.471,0.078 0.69,0.078c0.273,0 0.534,-0.043 0.783,-0.13c0.248,-0.086 0.467,-0.231 0.656,-0.434c0.189,-0.203 0.34,-0.471 0.451,-0.806c0.112,-0.335 0.168,-0.751 0.168,-1.248Z" style="fill:#fff;fill-rule:nonzero;"/></g></svg>